<svg xmlns="http://www.w3.org/2000/svg" xmlns:xlink="http://www.w3.org/1999/xlink" contentStyleType="text/css" data-diagram-type="SEQUENCE" height="1024px" preserveAspectRatio="none" style="width:1053px;height:1024px;" version="1.1" viewBox="0 0 1053 1024" width="1053px" zoomAndPan="magnify"><defs><linearGradient id="g1ik14a7zqmvdv0" x1="50%" x2="50%" y1="0%" y2="100%"><stop offset="0%" stop-color="#F4F4F4"/><stop offset="100%" stop-color="#F4F4F4"/></linearGradient></defs><g><rect fill="#FFFFFF" height="582.5938" style="stroke:#C6C6C6;stroke-width:1.5;" width="1009.3857" x="10" y="371.7813"/><rect fill="#FFFFFF" height="185.875" style="stroke:transparent;stroke-width:1;" width="1009.3857" x="10" y="768.5"/><g><title>End-User</title><rect fill="transparent" height="917.4063" width="8" x="90.2432" y="53.9688"/><line style="stroke:#C6C6C6;stroke-width:0.5;stroke-dasharray:5.0,5.0;" x1="94" x2="94" y1="53.9688" y2="971.375"/></g><g><title>Distributor-System</title><rect fill="transparent" height="917.4063" width="8" x="383.7705" y="53.9688"/><line style="stroke:#C6C6C6;stroke-width:0.5;stroke-dasharray:5.0,5.0;" x1="387.2305" x2="387.2305" y1="53.9688" y2="971.375"/></g><g><title>Supplier-System</title><rect fill="transparent" height="917.4063" width="8" x="697.1963" y="53.9688"/><line style="stroke:#C6C6C6;stroke-width:0.5;stroke-dasharray:5.0,5.0;" x1="700.9365" x2="700.9365" y1="53.9688" y2="971.375"/></g><g><title>Refundio</title><rect fill="transparent" height="917.4063" width="8" x="931.6611" y="53.9688"/><line style="stroke:#C6C6C6;stroke-width:0.5;stroke-dasharray:5.0,5.0;" x1="934.9365" x2="934.9365" y1="53.9688" y2="971.375"/></g><rect fill="url(#g1ik14a7zqmvdv0)" height="47.9688" style="stroke:#C6C6C6;stroke-width:0.5;" width="88.4863" x="50" y="5"/><text fill="#262626" font-family="sans-serif" font-size="12" lengthAdjust="spacing" textLength="54.4863" x="67" y="33.1387">End-User</text><rect fill="url(#g1ik14a7zqmvdv0)" height="47.9688" style="stroke:#C6C6C6;stroke-width:0.5;" width="88.4863" x="50" y="970.375"/><text fill="#262626" font-family="sans-serif" font-size="12" lengthAdjust="spacing" textLength="54.4863" x="67" y="998.5137">End-User</text><rect fill="url(#g1ik14a7zqmvdv0)" height="47.9688" style="stroke:#C6C6C6;stroke-width:0.5;" width="147.0801" x="314.2305" y="5"/><text fill="#262626" font-family="sans-serif" font-size="12" lengthAdjust="spacing" textLength="113.0801" x="331.2305" y="33.1387">Distributor-System</text><rect fill="url(#g1ik14a7zqmvdv0)" height="47.9688" style="stroke:#C6C6C6;stroke-width:0.5;" width="147.0801" x="314.2305" y="970.375"/><text fill="#262626" font-family="sans-serif" font-size="12" lengthAdjust="spacing" textLength="113.0801" x="331.2305" y="998.5137">Distributor-System</text><rect fill="url(#g1ik14a7zqmvdv0)" height="47.9688" style="stroke:#C6C6C6;stroke-width:0.5;" width="132.5195" x="634.9365" y="5"/><text fill="#262626" font-family="sans-serif" font-size="12" lengthAdjust="spacing" textLength="98.5195" x="651.9365" y="33.1387">Supplier-System</text><rect fill="url(#g1ik14a7zqmvdv0)" height="47.9688" style="stroke:#C6C6C6;stroke-width:0.5;" width="132.5195" x="634.9365" y="970.375"/><text fill="#262626" font-family="sans-serif" font-size="12" lengthAdjust="spacing" textLength="98.5195" x="651.9365" y="998.5137">Supplier-System</text><rect fill="url(#g1ik14a7zqmvdv0)" height="47.9688" style="stroke:#C6C6C6;stroke-width:0.5;" width="87.4492" x="891.9365" y="5"/><text fill="#262626" font-family="sans-serif" font-size="12" lengthAdjust="spacing" textLength="53.4492" x="908.9365" y="33.1387">Refundio</text><rect fill="url(#g1ik14a7zqmvdv0)" height="47.9688" style="stroke:#C6C6C6;stroke-width:0.5;" width="87.4492" x="891.9365" y="970.375"/><text fill="#262626" font-family="sans-serif" font-size="12" lengthAdjust="spacing" textLength="53.4492" x="908.9365" y="998.5137">Refundio</text><polygon fill="#C6C6C6" points="375.7705,99.9375,385.7705,103.9375,375.7705,107.9375,379.7705,103.9375" style="stroke:#C6C6C6;stroke-width:1;"/><line style="stroke:#C6C6C6;stroke-width:1;" x1="94.2432" x2="381.7705" y1="103.9375" y2="103.9375"/><text fill="#262626" font-family="sans-serif" font-size="12" lengthAdjust="spacing" textLength="113.6074" x="111.2432" y="89.1074">Supplies form data</text><polygon fill="#C6C6C6" points="689.1963,147.9063,699.1963,151.9063,689.1963,155.9063,693.1963,151.9063" style="stroke:#C6C6C6;stroke-width:1;"/><line style="stroke:#C6C6C6;stroke-width:1;" x1="387.7705" x2="695.1963" y1="151.9063" y2="151.9063"/><text fill="#262626" font-family="sans-serif" font-size="12" lengthAdjust="spacing" textLength="178.8398" x="404.7705" y="137.0762">ClaimFlightDisruptionRequest</text><polygon fill="#C6C6C6" points="923.6611,195.875,933.6611,199.875,923.6611,203.875,927.6611,199.875" style="stroke:#C6C6C6;stroke-width:1;"/><line style="stroke:#C6C6C6;stroke-width:1;" x1="701.1963" x2="929.6611" y1="199.875" y2="199.875"/><text fill="#262626" font-family="sans-serif" font-size="12" lengthAdjust="spacing" textLength="116.6191" x="718.1963" y="185.0449">Receives form data</text><polygon fill="#C6C6C6" points="398.7705,243.8438,388.7705,247.8438,398.7705,251.8438,394.7705,247.8438" style="stroke:#C6C6C6;stroke-width:1;"/><line style="stroke:#C6C6C6;stroke-width:1;" x1="392.7705" x2="700.1963" y1="247.8438" y2="247.8438"/><text fill="#262626" font-family="sans-serif" font-size="12" lengthAdjust="spacing" textLength="187.7285" x="414.7705" y="233.0137">ClaimFlightDisruptionResponse</text><polygon fill="#C6C6C6" points="105.2432,291.8125,95.2432,295.8125,105.2432,299.8125,101.2432,295.8125" style="stroke:#C6C6C6;stroke-width:1;"/><line style="stroke:#C6C6C6;stroke-width:1;" x1="99.2432" x2="386.7705" y1="295.8125" y2="295.8125"/><text fill="#262626" font-family="sans-serif" font-size="12" lengthAdjust="spacing" textLength="127.4004" x="121.2432" y="280.9824">Receive confirmation</text><line style="stroke:#C6C6C6;stroke-width:1;" x1="935.6611" x2="977.6611" y1="343.7813" y2="343.7813"/><line style="stroke:#C6C6C6;stroke-width:1;" x1="977.6611" x2="977.6611" y1="343.7813" y2="356.7813"/><line style="stroke:#C6C6C6;stroke-width:1;" x1="936.6611" x2="977.6611" y1="356.7813" y2="356.7813"/><polygon fill="#C6C6C6" points="946.6611,352.7813,936.6611,356.7813,946.6611,360.7813,942.6611,356.7813" style="stroke:#C6C6C6;stroke-width:1;"/><text fill="#262626" font-family="sans-serif" font-size="12" lengthAdjust="spacing" textLength="93.5742" x="952.6611" y="328.9512">Eligibility check</text><path d="M10,371.7813 L92.9473,371.7813 L92.9473,397.75 L82.9473,407.75 L10,407.75 L10,371.7813 " fill="#F4F4F4" style="stroke:#C6C6C6;stroke-width:1.5;"/><rect fill="transparent" height="582.5938" style="stroke:#C6C6C6;stroke-width:1.5;" width="1009.3857" x="10" y="371.7813"/><text fill="#262626" font-family="sans-serif" font-size="12" font-weight="bold" lengthAdjust="spacing" textLength="17.9473" x="35" y="393.9199">alt</text><text fill="#262626" font-family="sans-serif" font-size="12" font-weight="bold" lengthAdjust="spacing" textLength="662.9121" x="117.9473" y="394.9199">[Additiomal information is required (i.E.: sign contract, upload documents, submit payment info)]</text><polygon fill="#C6C6C6" points="398.7705,465.6875,388.7705,469.6875,398.7705,473.6875,394.7705,469.6875" style="stroke:#C6C6C6;stroke-width:1;"/><line style="stroke:#C6C6C6;stroke-width:1;" x1="392.7705" x2="700.1963" y1="469.6875" y2="469.6875"/><text fill="#262626" font-family="sans-serif" font-size="12" lengthAdjust="spacing" textLength="260.5371" x="414.7705" y="454.8574">ClaimFlightDisruptionStatusUpdateRequest</text><path d="M706,431.7188 L706,474.7188 L982,474.7188 L982,441.7188 L972,431.7188 L706,431.7188 " fill="#FFFFFF" style="stroke:#262626;stroke-width:1;"/><path d="M972,431.7188 L972,441.7188 L982,441.7188 L972,431.7188 " fill="#FFFFFF" style="stroke:#262626;stroke-width:1;"/><text fill="#262626" font-family="sans-serif" font-size="12" lengthAdjust="spacing" textLength="235.4824" x="722" y="457.8574">CLAIM_STATUS_MORE_INFO_REQUIRED</text><polygon fill="#C6C6C6" points="105.2432,516.6563,95.2432,520.6563,105.2432,524.6563,101.2432,520.6563" style="stroke:#C6C6C6;stroke-width:1;"/><line style="stroke:#C6C6C6;stroke-width:1;" x1="99.2432" x2="386.7705" y1="520.6563" y2="520.6563"/><text fill="#262626" font-family="sans-serif" font-size="12" lengthAdjust="spacing" textLength="185.9766" x="121.2432" y="505.8262">Request additional information</text><polygon fill="#C6C6C6" points="689.1963,564.625,699.1963,568.625,689.1963,572.625,693.1963,568.625" style="stroke:#C6C6C6;stroke-width:1;"/><line style="stroke:#C6C6C6;stroke-width:1;" x1="387.7705" x2="695.1963" y1="568.625" y2="568.625"/><text fill="#262626" font-family="sans-serif" font-size="12" lengthAdjust="spacing" textLength="269.4258" x="404.7705" y="553.7949">ClaimFlightDisruptionStatusUpdateResponse</text><polygon fill="#C6C6C6" points="375.7705,612.5938,385.7705,616.5938,375.7705,620.5938,379.7705,616.5938" style="stroke:#C6C6C6;stroke-width:1;"/><line style="stroke:#C6C6C6;stroke-width:1;" x1="94.2432" x2="381.7705" y1="616.5938" y2="616.5938"/><text fill="#262626" font-family="sans-serif" font-size="12" lengthAdjust="spacing" textLength="187.4531" x="111.2432" y="601.7637">Supplies additional information</text><polygon fill="#C6C6C6" points="689.1963,660.5625,699.1963,664.5625,689.1963,668.5625,693.1963,664.5625" style="stroke:#C6C6C6;stroke-width:1;"/><line style="stroke:#C6C6C6;stroke-width:1;" x1="387.7705" x2="695.1963" y1="664.5625" y2="664.5625"/><text fill="#262626" font-family="sans-serif" font-size="12" lengthAdjust="spacing" textLength="233.2266" x="404.7705" y="649.7324">ClaimFlightDisruptionExtraInfoRequest</text><polygon fill="#C6C6C6" points="923.6611,708.5313,933.6611,712.5313,923.6611,716.5313,927.6611,712.5313" style="stroke:#C6C6C6;stroke-width:1;"/><line style="stroke:#C6C6C6;stroke-width:1;" x1="701.1963" x2="929.6611" y1="712.5313" y2="712.5313"/><text fill="#262626" font-family="sans-serif" font-size="12" lengthAdjust="spacing" textLength="190.4648" x="718.1963" y="697.7012">Receives additional information</text><polygon fill="#C6C6C6" points="398.7705,756.5,388.7705,760.5,398.7705,764.5,394.7705,760.5" style="stroke:#C6C6C6;stroke-width:1;"/><line style="stroke:#C6C6C6;stroke-width:1;" x1="392.7705" x2="700.1963" y1="760.5" y2="760.5"/><text fill="#262626" font-family="sans-serif" font-size="12" lengthAdjust="spacing" textLength="242.1152" x="414.7705" y="745.6699">ClaimFlightDisruptionExtraInfoResponse</text><line style="stroke:#C6C6C6;stroke-width:1;stroke-dasharray:2.0,2.0;" x1="10" x2="1019.3857" y1="769.5" y2="769.5"/><text fill="#262626" font-family="sans-serif" font-size="12" font-weight="bold" lengthAdjust="spacing" textLength="126.1113" x="25" y="790.6387">[Off-Chain Payout]</text><polygon fill="#C6C6C6" points="398.7705,843.4375,388.7705,847.4375,398.7705,851.4375,394.7705,847.4375" style="stroke:#C6C6C6;stroke-width:1;"/><line style="stroke:#C6C6C6;stroke-width:1;" x1="392.7705" x2="700.1963" y1="847.4375" y2="847.4375"/><text fill="#262626" font-family="sans-serif" font-size="12" lengthAdjust="spacing" textLength="260.5371" x="414.7705" y="832.6074">ClaimFlightDisruptionStatusUpdateRequest</text><path d="M706,809.4688 L706,852.4688 L891,852.4688 L891,819.4688 L881,809.4688 L706,809.4688 " fill="#FFFFFF" style="stroke:#262626;stroke-width:1;"/><path d="M881,809.4688 L881,819.4688 L891,819.4688 L881,809.4688 " fill="#FFFFFF" style="stroke:#262626;stroke-width:1;"/><text fill="#262626" font-family="sans-serif" font-size="12" lengthAdjust="spacing" textLength="144.3867" x="722" y="835.6074">CLAIM_STATUS_PAYOUT</text><polygon fill="#C6C6C6" points="105.2432,894.4063,95.2432,898.4063,105.2432,902.4063,101.2432,898.4063" style="stroke:#C6C6C6;stroke-width:1;"/><line style="stroke:#C6C6C6;stroke-width:1;" x1="99.2432" x2="386.7705" y1="898.4063" y2="898.4063"/><text fill="#262626" font-family="sans-serif" font-size="12" lengthAdjust="spacing" textLength="249.5273" x="121.2432" y="883.5762">Send message to user with link to payout</text><polygon fill="#C6C6C6" points="689.1963,942.375,699.1963,946.375,689.1963,950.375,693.1963,946.375" style="stroke:#C6C6C6;stroke-width:1;"/><line style="stroke:#C6C6C6;stroke-width:1;" x1="387.7705" x2="695.1963" y1="946.375" y2="946.375"/><text fill="#262626" font-family="sans-serif" font-size="12" lengthAdjust="spacing" textLength="269.4258" x="404.7705" y="931.5449">ClaimFlightDisruptionStatusUpdateResponse</text><!--SRC=[lLJ1Rfj04BtlLqnpQIk5V40EbTo4I9QIs0Nxq9ErXW56WLsoEzkMl- -28GasTYr5AQTbU6_UspSZFd615K8YpLQh83Uo4QAMXYcXMYg6Yr2bmTgYkG1f0LNQdiU8Mx9iQEjOco1kB6FLOTFNygugFiCn7Ypz1uKcM9Ok9xNFtrLFy8FlclT9lhJFY5rTbuIlSDiNJc2dh0sqtjUqnfie1doVmmWVOUPKIhe3clv5Y3vf2BuT1WdNqAjOoBIf89KinI7CSyVAddXJIghkIieBzlaPLpDf5U6pGyjY3-tvWo7FZ311-ZMIFCHFUJqYQMkjB4xR7cx_eWg9LXcPIhPSyU9gx33q6hIbahY1fC3aIGXPCipIb3ojaYMGQirtJO3Qk9yT6KpX2rs5LzTWALUj4XkPy2MukjGoXLGdhaB5zjB7kQs8_Q8qRQ5hzrM0VzwHHCoIdLtNFb7i1m5TJwKPmRJWbde_cpziujLijOut3uietCmVxnQRAFondaVXRKVuPvIxvdANXnhdSRp3UJiqlaO_tAxfkQlyCRx2FtwQSzzlMFBfSKqj-Wb3xvZt6qD3IbXQX4MM1JU59EN_E8rs_HBytyLQpdukrgjpbYdsHwZGMfaZi0RNbdyJ5r2IUcehTNUBZrahB_uN]--></g></svg>